<svg xmlns="http://www.w3.org/2000/svg" xml:space="preserve" width="1500" height="1500" data-id="lg_LBGQYnKknhcaxtbHlv" data-version="1" viewBox="0 0 1500 1500"><path fill="#398378" stroke="transparent" d="M0 0h1500v1500H0z"/><g data-padding="20"><g transform="translate(-578.546 -579.223)scale(1.73087)"><rect width="586.467" height="320.491" x="220.567" y="365.632" fill="none" rx="0" ry="0" transform="matrix(.95 0 0 .95 279.45 326.83)"/><path fill="#fff" d="m645.657 720.489-4.465 26.942q-15.865-4.788-23.228-4.788-7.353 0-10.08 6.44-2.726 6.45-2.726 20.416t2.565 20.33q2.556 6.365 10.488 6.365 2.318 0 8.93-1.32v-12.56h-7.438v-19.512h31.568v56.705h-19.503l-2.641-5.291h-.665q-2.812 2.308-4.465 3.467-4.627 3.477-13.053 3.477-34.552 0-34.552-52.24 0-26.116 9.092-39.92 9.091-13.803 30.58-13.803 17.195 0 29.593 5.292m89.754 28.927q0 9.253-2.812 15.37t-8.759 11.078l13.718 43.643h-30.58l-10.25-37.03h-3.8v37.03h-27.769V716.85h38.352q16.53 0 24.215 7.77t7.686 24.796m-38.181 15.704q4.294 0 6.109-2.48 1.824-2.48 1.824-9.005 0-6.536-1.824-9.092-1.815-2.565-5.947-2.565h-4.465v23.142Zm106.78 31.245-1.653 23.142h-55.537V716.85h57.19l-1.653 25.29h-27.275v15.38h23.636v21.812h-23.636v17.034Zm66.785 0-1.653 23.142h-55.547V716.85h57.2l-1.653 25.29h-27.275v15.38h23.636v21.812h-23.636v17.034Zm84.465-79.515v102.657h-27.113l-21.318-47.775h-1.32v47.775h-25.127V716.85h27.93l20.339 49.258h1.32v-49.257ZM504.894 865.44q0-14.715 8.598-23.636 8.588-8.93 23.55-8.93t30.666 2.973l-3.305 26.449q-16.369-3.8-22.487-3.8-7.761 0-7.761 6.279 0 2.48 3.714 4.797 3.724 2.318 9.006 4.874 5.292 2.565 10.583 6.118t9.006 10.165q3.724 6.612 3.724 15.21 0 15.703-8.436 24.3-8.426 8.598-23.883 8.598t-30.162-4.797l1.814-24.634q17.689 5.13 24.633 5.13 6.936 0 6.936-6.118 0-3.144-3.715-5.785-3.724-2.641-9.006-5.292-5.291-2.641-10.668-6.118-5.368-3.467-9.092-10.08-3.714-6.612-3.714-15.703m151.087-30.913v102.657h-28.101v-38.845h-19.332v38.845h-28.434V834.527h28.434v40.337h19.332v-40.337Zm68.772 0 18.837 102.657h-27.598l-3.144-16.207h-19.504l-3.144 16.207h-26.277l18.838-102.657Zm-27.769 67.118h12.72l-5.785-36.7h-1.15Zm131.565-18.022q0 53.56-42.313 53.56H752.18V834.528h34.712q22.648 0 32.148 12.645 9.51 12.644 9.51 36.45m-42.816 29.755q8.768 0 11.323-6.203 2.565-6.194 2.565-20.824t-2.726-20.748q-2.726-6.11-11.656-6.11h-4.96v53.885Zm59.602-68.105q9.51-12.398 31.16-12.398t30.989 12.236q9.348 12.226 9.348 39.748 0 27.53-9.595 40.755-9.586 13.224-31.075 13.224t-30.913-13.062q-9.414-13.063-9.414-40.584t9.5-39.92m43.063 39.672q0-15.21-2.403-20.576-2.394-5.377-9.747-5.377t-9.51 5.377q-2.147 5.367-2.147 20.415v3.962q0 16.036 2.394 21.08 2.404 5.044 9.757 5.044t9.51-4.797q2.146-4.798 2.146-19.836Zm115.54-50.416h26.124l-9.262 102.657h-34.048l-8.93-45.457h-1.32l-7.439 45.457h-34.219L924.1 834.527h27.113l4.294 54.388h1.653l6.945-54.388h27.607l7.6 54.388h1.653Z"/><rect width="566.244" height="313.236" x="230.678" y="369.259" fill="none" rx="0" ry="0" transform="matrix(.95 0 0 .95 279.45 323.21)"/><path fill="#8abe53" stroke="#fff" stroke-width="3.249" d="m651.005 719.86-4.313 26.012q-15.314-4.626-22.42-4.626t-9.738 6.222-2.631 19.713q0 13.48 2.47 19.627 2.479 6.147 10.136 6.147 2.233 0 8.617-1.273V779.55h-7.182v-18.84h30.485v54.75H637.6l-2.555-5.111h-.637q-2.717 2.232-4.313 3.353-4.465 3.354-12.606 3.354-33.355 0-33.355-50.436 0-25.213 8.778-38.541 8.778-13.33 29.526-13.33 16.597 0 28.567 5.112Zm86.658 27.93q0 8.93-2.707 14.84-2.717 5.909-8.465 10.697l13.253 42.133h-29.526l-9.899-35.748h-3.667v35.748h-26.818v-99.113h37.03q15.96 0 23.38 7.504 7.42 7.496 7.42 23.94Zm-36.86 15.163q4.142 0 5.9-2.394t1.758-8.702-1.758-8.778-5.747-2.47h-4.304v22.344Zm103.095 30.163-1.596 22.344h-53.618v-99.113h55.214l-1.596 24.414h-26.334v14.849h22.828v21.06h-22.828v16.446Zm64.477 0-1.596 22.344H813.15v-99.113h55.224l-1.596 24.414h-26.334v14.849h22.819v21.06h-22.82v16.446Zm81.556-76.77v99.114H923.76l-20.587-46.122H901.9v46.122h-24.263v-99.113h26.971l19.636 47.556h1.273v-47.557Zm-434.824 147.08q0-14.203 8.294-22.82 8.303-8.616 22.743-8.616 14.449 0 29.611 2.87l-3.192 25.536q-15.798-3.667-21.707-3.667-7.505 0-7.505 6.06 0 2.394 3.59 4.627t8.703 4.712q5.11 2.47 10.212 5.9 5.111 3.439 8.702 9.823 3.591 6.383 3.591 14.677 0 15.162-8.141 23.465-8.142 8.293-23.066 8.293-14.915 0-29.127-4.626l1.757-23.78q17.081 4.95 23.779 4.95 6.707 0 6.707-5.908 0-3.03-3.591-5.586t-8.702-5.102q-5.102-2.555-10.289-5.91t-8.778-9.736-3.591-15.162Zm145.863-29.84v99.104h-27.133v-37.505H615.16v37.506h-27.444v-99.104h27.446v38.94h18.676v-38.94Zm66.405 0 18.193 99.104H718.91l-3.031-15.637H697.05l-3.03 15.637h-25.384l18.202-99.104Zm-26.818 64.79h12.293l-5.586-35.425h-1.121ZM827.6 880.98q0 51.709-40.86 51.709h-32.87v-99.106h33.516q21.86 0 31.037 12.208t9.177 35.188Zm-41.334 28.728q8.455 0 10.934-5.985 2.47-5.985 2.47-20.111 0-14.117-2.631-20.026-2.632-5.91-11.248-5.91h-4.788v52.032Zm57.531-65.75q9.177-11.97 30.087-11.97t29.925 11.809 9.016 38.38-9.253 39.34q-9.253 12.766-30.002 12.766t-29.85-12.606-9.1-39.178 9.177-38.542Zm41.582 38.304q0-14.687-2.318-19.874-2.308-5.187-9.414-5.187t-9.177 5.187-2.071 19.713v3.828q0 15.485 2.308 20.35 2.318 4.863 9.415 4.863 7.105 0 9.176-4.626 2.081-4.627 2.081-19.152Zm111.559-48.678h25.213l-8.93 99.104h-32.88l-8.616-43.89h-1.283l-7.182 43.89h-33.031l-10.374-99.104h26.172l4.152 52.507h1.596l6.697-52.506h26.657l7.344 52.506h1.596Z"/><rect width="448.15" height="100.073" x="289.725" y="475.841" fill="none" rx="0" ry="0" transform="matrix(.95 0 0 .95 276.183 489.021)"/><path fill="#fff" d="m583.023 976.987 1.283-.314q.617 0 .617.627-.038 1.007-1.026 1.805-.997.798-2.242.798-1.244 0-1.985-1.206-1.055-1.748-1.986-6.27-.427-2.176-1.016-3.582-1.046.352-2.214.352t-2.052-.485q-.874-.494-.874-1.187.076-1.796 2.879-1.796 1.368 0 2.926 1.207 2.413-1.834 2.413-5.102 0-1.947-.741-3.448t-1.948-2.357q-2.375-1.672-5.291-1.672l-.276 2.727q-.39 3.895-.465 6.032l-.124 6.156q0 7.087-2.802 7.087-1.787 0-1.787-1.52 0-.39.523-1.32t.76-2.166q.238-1.225.503-7.201.276-5.975.742-9.405-2.062.58-3.373 1.786-1.301 1.207-1.301 2.85 0 .93-.428 1.492-.427.57-1.054.57-1.131 0-1.131-1.207 0-2.726 2.204-4.503 2.204-1.767 5.434-2.546.779-2.612 2.185-2.612.541 0 .541 1.244 0 .275-.076.978.428-.075 1.635-.075t2.726.342q1.52.35 3.059 1.187 1.539.845 2.47 2.536.94 1.69.94 3.952t-1.168 4.209-3.04 3.116q1.32 1.634 2.08 4.009t1.425 3.648q.665 1.264 1.055 1.264m-9.899-9.937q0 .313.551.55.542.228 1.14.228.608 0 1.112-.19-.78-.892-1.786-.892-1.017 0-1.017.304m23.37-.18q1.558-.504 2.166-.874.598-.371.912-.57l.465-.276q.2-.114.314-.114.314 0 .314.352t-1.207 1.225-3.002 1.577q-.275 3.278-2.061 5.3-1.796 2.024-5.102 2.024-2.422 0-3.705-1.928t-1.282-4.522q0-2.584 1.539-4.883t3.952-2.3q1.092-.778 2.593-.778 1.492 0 2.784 1.596 1.282 1.596 1.32 4.17m-2.527 1.986-1.406.076q-1.795 0-3.04-1.073-1.244-1.064-1.244-2.356 0-1.283.427-2.214-1.672 1.32-1.672 5.216 0 1.87.779 3.562.779 1.7 2.451 1.7t2.612-1.424q.931-1.425 1.093-3.487m-2.423-6.47q-.617 0-.969.57-.351.56-.351 1.226 0 1.444.997 2.337.988.893 2.318.893h.466q-.076-1.91-.646-3.467-.56-1.558-1.814-1.558"/><path fill="#fff" d="M610.677 966.87q1.558-.504 2.157-.874.608-.371.912-.57l.475-.276q.19-.114.304-.114.313 0 .313.352t-1.206 1.225-3.002 1.577q-.266 3.278-2.062 5.3-1.786 2.024-5.101 2.024-2.413 0-3.696-1.928-1.292-1.928-1.292-4.522 0-2.584 1.54-4.883 1.538-2.3 3.951-2.3 1.093-.778 2.594-.778t2.784 1.596 1.33 4.17m-2.537 1.986-1.406.076q-1.786 0-3.03-1.073-1.255-1.064-1.255-2.356 0-1.283.437-2.214-1.681 1.32-1.681 5.216 0 1.87.779 3.562.779 1.7 2.46 1.7 1.672 0 2.603-1.424.941-1.425 1.093-3.487m-2.413-6.47q-.627 0-.979.57-.351.56-.351 1.226 0 1.444.997 2.337t2.318.893h.466q-.076-1.91-.646-3.467-.56-1.558-1.805-1.558"/><path fill="#fff" d="M621.384 968.959q-3.078 6.546-5.197 6.546-2.128 0-2.498-.504-.37-.513-.37-3.353t.55-8.218q-1.947-.39-2.07-1.596 0-.627.826-.627.817 0 1.434.314.352-2.803.817-5.681.124-.741.741-1.406.627-.665 1.207-.665.513 0 .513 1.596 0 .74-.551 6.82 1.055-.2 2.318-.778 1.264-.59 1.501-.59.703 0 .703.428.038.39-1.444 1.074t-3.192 1.035q-.465 5.68-.465 8.607 0 1.558.465 1.558.703-.038 1.872-1.634t2.318-4.151q1.149-2.546 1.396-2.546.257 0 .257.304 0 1.092-1.131 3.467"/><path fill="#fff" d="M625.241 975.504q-2.185 0-3.468-1.653t-1.282-3.762q0-4.246 1.786-6.422 1.795-2.185 4.636-2.185 1.33 0 2.185.722t.855 1.967q0 2.337-1.967 3.914-1.966 1.577-4.807 1.653.152 1.52 1.026 2.63.884 1.113 2.052 1.113t2.1-.551q.931-.542 1.71-1.558 1.644-2.138 2.812-4.864.304-.703.485-1.017.17-.304.389-.304.209 0 .209.304 0 1.948-2.375 5.843-2.565 4.17-6.346 4.17m-2.061-6.697q2.299-.39 3.363-1.482 1.073-1.093 1.073-2.84 0-1.758-1.13-1.758-1.359 0-2.3 1.89-.93 1.89-1.007 4.19"/><path fill="#fff" d="M643.006 975.504q-1.33 0-2.071-.58-.314-.313-.314-1.643 0-1.32.124-3.467-1.055 2.812-2.147 4.246-1.093 1.444-2.746 1.444t-2.802-1.444q-1.15-1.434-1.15-4.588 0-3.163 1.777-5.576 1.767-2.414 4.655-2.414 1.396 0 2.916 1.093.627-7.6 1.131-8.57.238-.427 1.112-1.244t1.463-.817q.579 0 .579 1.824 0 2.147-.39 3.705-1.054 4.01-1.32 5.102-.551 4.208-.551 9.89 0 1.054.238 1.054.703-.038 1.871-1.634t2.318-4.152q1.15-2.546 1.397-2.546.256 0 .256.304 0 1.093-1.13 3.468-3.078 6.545-5.216 6.545m-4.911-12.616q-1.055 0-2.1 1.672-1.054 1.672-1.054 3.876t.56 3.6q.57 1.407 1.425 1.407 1.748 0 4.009-7.011.2-2.147.2-2.537-1.131-1.007-3.04-1.007m18.335-6.621q0-.703.741-1.206.741-.513 1.32-.513 1.055 0 1.055 1.206t-.627 2.09q-.617.874-1.748.874-.741 0-.741-2.451m1.13 19.238q-1.52 0-2.298-.627-.276-.266-.276-1.948 0-1.672.257-5.586t.446-4.227q.2-.314 1.206-1.17 1.017-.854 1.577-.854.57 0 .57 1.482 0 .39-.218 1.52-.209 1.13-.485 1.634-.503 1.283-.503 6.735 0 1.055.228 1.055.665-.038 1.833-1.653t2.318-4.151q1.15-2.527 1.397-2.527.256 0 .256.304 0 1.092-1.13 3.467-3.078 6.545-5.178 6.545"/><path fill="#fff" d="m664.856 973.216.038 1.206q0 1.092-.627 1.092-.931 0-1.786-.256-.865-.247-.865-.693 0-.456.219-3.078.209-2.632.209-3.952v-2.3q0-1.871.39-2.26.389-.39 1.386-1.131t1.444-.741.561.152q.114.162.114.589 0 2.062-.779 3.895-.19 2.223-.19 3.078.152-.237 1.634-2.65t2.517-3.544q1.026-1.13 1.843-1.13t1.463.54q.646.552.646 1.369 0 1.71-.37 5.044-.37 3.325-.37 4.209 0 .874.227.874.665-.038 1.834-1.653t2.318-4.151q1.15-2.528 1.406-2.528.247 0 .247.304 0 1.093-1.13 3.468-3.069 6.545-5.178 6.545-1.52 0-2.299-.627-.266-.266-.266-1.415t.209-3.743q.218-2.584.218-3.876 0-1.283-.456-1.283-.446 0-2.356 2.67-1.9 2.67-2.023 3.41-.228 1.359-.228 2.565m32.48-20.966q3.781 0 5.957 2.46 2.185 2.45 2.185 6.774t-1.853 7.866-5.158 5.225q1.672 1.472 2.375 1.472 2.061 0 3.353-1.9.656-.978 1.045-.978.39 0 .39.389 0 .93-.656 1.948-1.947 3.04-5.415 3.04-1.52 0-4.132-3.04-1.093.199-1.986.199-3.543 0-5.785-2.574t-2.242-6.27q0-5.691 2.812-9.937 1.358-2.138 3.714-3.401 2.356-1.273 5.396-1.273m-1.054 1.795q-4.161 0-6.128 3.078-1.966 3.078-1.966 8.142 0 2.099.855 3.933t2.213 3.04q1.131-1.131 2.337-1.131 1.216 0 3.63 2.26 2.526-.825 3.856-3.371 1.321-2.556 1.321-6.49t-1.71-6.696q-1.72-2.765-4.408-2.765m11.068 17.889.227-4.36q0-4.171.39-4.56.39-.39 1.387-1.15.988-.76 1.444-.76.446 0 .56.152.114.162.114.627 0 1.672-.74 3.39-.58 3.583-.58 5.882t.741 2.299q.893 0 2.1-1.558t2.412-4.636q.352-3.895.57-4.21.21-.312 1.074-1.13.855-.816 1.416-.816.57 0 .57 1.482 0 .39-.219 1.52-.209 1.13-.484 1.634-.428 1.092-.428 6.735 0 1.055.228 1.055.665-.038 1.834-1.653t2.317-4.151q1.15-2.528 1.406-2.528.247 0 .247.304 0 1.093-1.13 3.468-3.068 6.545-5.177 6.545-1.52 0-2.3-.627-.266-.266-.266-1.672 0-1.396.114-3.116-1.244 2.65-2.498 4.028-1.244 1.387-2.783 1.387t-2.043-.817-.503-2.764"/><path fill="#fff" d="M732.506 975.504q-1.52 0-2.3-.627-.266-.266-.266-1.377t.076-2.983q-1.016 2.536-2.004 3.762-.997 1.225-2.555 1.225t-2.727-1.463q-1.168-1.453-1.168-4.598 0-3.135 1.776-5.548 1.767-2.413 4.655-2.413 1.245 0 2.803 1.634.313-.427 1.111-1.026.798-.608 1.359-.608.57 0 .57 1.482 0 .39-.219 1.52-.209 1.13-.484 1.634-.352.893-.352 6.346 0 1.055.238 1.055.655-.038 1.824-1.653t2.318-4.152q1.149-2.527 1.406-2.527t.256.304q0 1.093-1.13 3.468-3.078 6.545-5.187 6.545m-4.75-12.464q-1.093 0-2.318 1.615t-1.226 3.8.646 3.582q.637 1.406 1.691 1.406 1.283 0 3.781-6.432.038-.313.095-1.073.057-.75.095-1.14-.351-.627-1.225-1.197-.875-.56-1.54-.56"/><path fill="#fff" d="M739.317 975.504q-.855 0-1.577-.218-.722-.21-.874-.41-.389-.464-.389-4.844t.969-11.903q.817-6.185 3.819-6.185.703 0 1.007.75.313.76.313 1.464 0 5.063-3.078 11.333-.114 3.24-.114 5.634t.428 2.394q.665-.038 1.833-1.653t2.318-4.152q1.15-2.527 1.397-2.527.256 0 .256.304 0 1.093-1.13 3.468-3.078 6.545-5.177 6.545m2.298-20.995q0-1.244-.313-1.244-1.169 0-1.71 9.7 2.023-5.34 2.023-8.456"/><path fill="#fff" d="M744.742 956.267q0-.703.74-1.206.741-.513 1.321-.513 1.055 0 1.055 1.206t-.627 2.09q-.618.874-1.748.874-.741 0-.741-2.451m1.13 19.238q-1.52 0-2.299-.627-.275-.266-.275-1.948 0-1.672.256-5.586.247-3.914.446-4.227.19-.314 1.207-1.17t1.577-.854.56 1.482q0 .39-.209 1.52-.218 1.13-.484 1.634-.513 1.283-.513 6.735 0 1.055.237 1.055.665-.038 1.834-1.653t2.318-4.151q1.15-2.527 1.396-2.527.257 0 .257.304 0 1.092-1.13 3.467-3.078 6.545-5.178 6.545"/><path fill="#fff" d="M758.84 968.959q-3.079 6.546-5.197 6.546-2.128 0-2.499-.504-.37-.513-.37-3.353t.551-8.218q-1.947-.39-2.071-1.596 0-.627.817-.627.826 0 1.444.314.352-2.803.817-5.681.124-.741.741-1.406.627-.665 1.206-.665.513 0 .513 1.596 0 .74-.55 6.82 1.054-.2 2.317-.778 1.264-.59 1.501-.59.703 0 .703.428.038.39-1.444 1.074t-3.192 1.035q-.465 5.68-.465 8.607 0 1.558.465 1.558.703-.038 1.872-1.634t2.318-4.151q1.15-2.546 1.396-2.546.257 0 .257.304 0 1.092-1.13 3.467"/><path fill="#fff" d="m757.937 971.933.228-4.36q0-4.171.389-4.56.39-.39 1.387-1.15.988-.76 1.435-.76.456 0 .57.152.114.162.114.627 0 1.672-.741 3.39-.58 3.583-.58 5.882t.542 2.299q.94 0 2.166-1.663 1.225-1.653 2.508-4.883.037-.855.075-1.814.048-.95.086-1.397.038-.446.057-.646.019-.19 1.074-1.073 1.045-.874 1.615-.874.56 0 .56 1.482 0 .39-.209 1.52-.218 1.13-.494 1.634-.304 2.764-.427 4.826 3.819-4.826 4.075-5.102.247-.266.446-.266.39 0 .39.39 0 .228-.161.503-1.245 1.834-4.902 6.422-.238 4.636-.314 6.318-.19 4.94-1.387 6.944-1.187 2.014-4.218 2.014-1.33 0-2.48-.807-1.149-.798-1.149-2.765 0-1.966 1.501-4.028t5.472-6.346l.238-4.246q-1.33 2.916-2.613 4.417t-2.84 1.5-1.986-.778-.427-2.802m7.315 7.552.199-3.82q-4.436 4.799-4.436 7.677 0 1.33.465 2.185t1.283.855q1.244 0 1.757-1.368.503-1.358.731-5.53m7.488-5.328q0-.437.74-1.111.732-.684 1.321-.684.58 0 1.054.722.466.72.466 1.69 0 .979-1.425 2.983-1.416 2.005-2.394 2.005-.314 0-.314-.428t.78-1.444q.778-1.007.778-1.577 0-.56-.503-1.15-.503-.58-.503-1.006m31.473-7.182q1.216-.352 2.536-1.188t1.672-.836.352.446-.542.836q-1.985 1.406-4.132 2.147-.817 3.772-3.658 5.643-2.85 1.872-6.507 1.872-2.337 0-4.114-.817-1.767-.817-2.698-2.1-1.871-2.536-1.871-5.338 0-3.62 1.111-6.565 1.102-2.945 2.897-4.712 1.796-1.776 3.876-2.707t4.228-.931q2.137 0 3.933 1.377 1.795 1.387 1.795 3.173 0 .589-.456.979-.446.389-1.064.389-.902 0-1.254-1.244-.855-3.002-4.085-3.002-2.726 0-5.282 3.39-2.546 3.383-2.546 8.019 0 3.278 1.967 5.69t4.93 2.413q2.375 0 4.047-1.368 1.672-1.358 2.138-3.505-.969.2-2.375.2-1.397 0-2.432-.665-1.036-.656-1.036-1.805t1.188-1.967q1.197-.826 3.021-.826 1.833 0 3.097.74 1.263.74 1.263 2.26m-4.474-1.671q-1.758 0-1.758.78 0 .579.703.968.703.39 1.463.39t1.54-.076q-.039-.931-.628-1.501-.579-.56-1.32-.56"/><path fill="#fff" d="m810.102 965.14 2.137-.228q.313 0 .541.352.238.35.238.74t-.257 2.64q-.247 2.262-.247 3.573 0 1.302.228 1.302.665-.038 1.834-1.653t2.318-4.152q1.15-2.527 1.406-2.527.247 0 .247.304 0 1.093-1.13 3.468-3.079 6.545-5.178 6.545-1.52 0-2.299-.627-.275-.266-.275-3.382t.664-5.34q-2.26 0-3.154-1.443-.465-.74-.465-1.672t.39-1.634 1.111-.703 1.32.76q.608.76.608 1.69 0 .942-.55 1.873.161.114.512.114"/><path fill="#fff" d="M828.836 966.87q1.558-.504 2.156-.874.608-.371.922-.57l.465-.276q.19-.114.314-.114.303 0 .303.352t-1.206 1.225-2.993 1.577q-.275 3.278-2.07 5.3-1.787 2.024-5.102 2.024-2.413 0-3.696-1.928-1.292-1.928-1.292-4.522 0-2.584 1.54-4.883 1.538-2.3 3.951-2.3 1.093-.778 2.594-.778t2.783 1.596q1.292 1.596 1.33 4.17m-2.536 1.986-1.397.076q-1.795 0-3.04-1.073-1.244-1.064-1.244-2.356 0-1.283.427-2.214-1.681 1.32-1.681 5.216 0 1.87.779 3.562.779 1.7 2.46 1.7 1.672 0 2.603-1.424.941-1.425 1.093-3.487m-2.413-6.47q-.627 0-.979.57-.342.56-.342 1.226 0 1.444.988 2.337.998.893 2.318.893h.466q-.076-1.91-.637-3.467-.57-1.558-1.814-1.558"/><path fill="#fff" d="M847.019 967.259q1.643 0 3.04-1.406.703-.703.959-.703.247 0 .247.39t-.503.94q-2.062 2.299-5.178 2.299-.627 2.878-1.947 4.807-1.33 1.928-3.354 1.928t-2.916-2.375q-1.606 2.375-3.316 2.375-3.23 0-3.23-6.232 0-4.322.855-5.88.152-.275 1.169-.893 1.016-.627 1.406-.627.579 0 .579.703-.076 1.834-1.092 4.323-.228.465-.228 2.24 0 1.768.408 3.117.409 1.34 1.188 1.34t1.909-1.872q-.2-.97-.2-2.08t.238-2.375q.228-1.264.931-2.556.703-1.282 1.672-1.282.314 0 .456.2.133.19.133.93 0 1.986-1.054 4.95.161 1.71.798 2.897.646 1.188 1.425 1.188 1.13 0 1.909-1.463.779-1.454 1.207-3.563-1.444-.39-2.223-1.482-.78-1.083-.78-2.508t.685-2.45q.684-1.036 2.004-1.036 1.796 0 1.796 3.857 0 1.016-.124 2.1.589.199 1.13.199m-3.077-4.674q-.342 0-.342 1.32 0 1.33 1.206 2.46.038-.2.038-.588 0-3.192-.902-3.192"/><path fill="#fff" d="M850.372 956.267q0-.703.741-1.206.741-.513 1.32-.513 1.055 0 1.055 1.206t-.627 2.09q-.617.874-1.748.874-.741 0-.741-2.451m1.13 19.238q-1.52 0-2.299-.627-.275-.266-.275-1.948 0-1.672.257-5.586t.446-4.227q.2-.314 1.207-1.17 1.016-.854 1.577-.854.57 0 .57 1.482 0 .39-.219 1.52-.209 1.13-.484 1.634-.504 1.283-.504 6.735 0 1.055.228 1.055.665-.038 1.834-1.653t2.318-4.151q1.149-2.527 1.396-2.527.257 0 .257.304 0 1.092-1.131 3.467-3.078 6.545-5.177 6.545"/><path fill="#fff" d="m858.78 973.216.038 1.206q0 1.092-.627 1.092-.931 0-1.796-.256-.855-.247-.855-.693 0-.456.219-3.078.209-2.632.209-3.952v-2.3q0-1.871.39-2.26.389-.39 1.386-1.131.988-.741 1.444-.741.447 0 .561.152.114.162.114.589 0 2.062-.779 3.895-.19 2.223-.19 3.078.152-.237 1.634-2.65t2.508-3.544q1.035-1.13 1.852-1.13t1.463.54q.646.552.646 1.369 0 1.71-.37 5.044-.37 3.325-.37 4.209 0 .874.228.874.665-.038 1.833-1.653t2.318-4.151q1.15-2.528 1.406-2.528.247 0 .247.304 0 1.093-1.13 3.468-3.078 6.545-5.178 6.545-1.52 0-2.299-.627-.275-.266-.275-1.415t.218-3.743q.219-2.584.219-3.876 0-1.283-.456-1.283-.447 0-2.356 2.67t-2.024 3.41q-.228 1.359-.228 2.565"/><path fill="#fff" d="M879.119 969.349q-1.206 3.192-2.242 4.674-1.035 1.48-2.707 1.48t-2.822-1.443q-1.15-1.434-1.15-4.588 0-3.163 1.767-5.576 1.777-2.414 4.655-2.414.59 0 1.406.485.817.494 1.444 1.188.114-.39 1.131-1.226 1.007-.836 1.577-.836.56 0 .56 1.672 0 1.682-.703 2.964-.389 2.613-.427 4.826 3.819-4.826 4.076-5.101.246-.266.446-.266.39 0 .39.389 0 .228-.162.503-1.244 1.834-4.902 6.422-.237 4.636-.313 6.318-.2 4.94-1.387 6.945-1.188 2.014-4.218 2.014-1.33 0-2.48-.808-1.15-.798-1.15-2.764 0-1.967 1.502-4.028 1.5-2.062 5.472-6.347Zm-2.726-6.46q-1.093 0-2.318 1.69t-1.226 3.895.637 3.582q.646 1.387 1.615 1.387.978 0 1.871-1.596.903-1.596 2.299-5.491.076-1.33.076-1.681-.304-.58-1.282-1.188-.97-.6-1.672-.6m2.175 16.588.2-3.82q-4.446 4.799-4.446 7.677 0 1.33.475 2.185.465.855 1.282.855 1.245 0 1.748-1.368.513-1.358.741-5.53m19.674-12.386q2.1-.504 3.525-1.283t1.501-.78q.228 0 .228.39t-.779.979q-1.634 1.207-4.085 2.06 1.007 3.859 1.007 8.18 0 3.62-.817 6.936-.465 1.872-1.453 3.04-.998 1.169-2.442 1.169-1.245 0-1.71-1.093-.589-1.292-.665-2.46-.114-1.824-.114-5.957 0-4.123.627-9.965-1.406-1.017-1.406-2.48t.627-2.261q.617-.798 1.558-1.026.542-3.391 1.064-5.842.532-2.461 1.615-4 1.092-1.53 2.185-1.53 1.245 0 1.245 2.765 0 4.36-3.23 9.814.817 1.168 1.52 3.344m-2.727 1.947q-.351 4.797-.351 11.01t.665 6.213q1.168 0 1.947-3.058.779-3.06.779-6.86t-.864-7.61q-1.169.305-2.176.305m.58-5.843q1.13-1.862 2.07-4.417.932-2.546.932-4.265 0-1.71-.352-1.71-.617 0-1.34 2.84-.721 2.84-1.31 7.553m0 1.558-.228.389-.2 1.995q.513.152.922.152.408 0 .674-.038-.503-1.52-1.168-2.498m-2.413-1.245q-.58.2-.58.903 0 .693.304 1.206.162-1.406.275-2.11"/><path fill="#fff" d="M913.471 966.87q1.558-.504 2.157-.874.608-.371.921-.57l.465-.276q.2-.114.314-.114.313 0 .313.352t-1.206 1.225q-1.216.874-3.002 1.577-.276 3.278-2.062 5.3-1.795 2.024-5.11 2.024-2.414 0-3.696-1.928t-1.283-4.522q0-2.584 1.54-4.883 1.538-2.3 3.951-2.3 1.093-.778 2.584-.778 1.501 0 2.793 1.596 1.283 1.596 1.321 4.17m-2.537 1.986-1.396.076q-1.796 0-3.04-1.073-1.245-1.064-1.245-2.356 0-1.283.428-2.214-1.672 1.32-1.672 5.216 0 1.87.779 3.562.779 1.7 2.451 1.7t2.612-1.424q.931-1.425 1.083-3.487m-2.413-6.47q-.617 0-.969.57-.351.56-.351 1.226 0 1.444.988 2.337.997.893 2.318.893h.475q-.086-1.91-.646-3.467-.57-1.558-1.815-1.558"/><path fill="#fff" d="m918.848 965.14 2.137-.228q.314 0 .551.352.228.35.228.74t-.247 2.64q-.256 2.262-.256 3.573 0 1.302.237 1.302.656-.038 1.824-1.653t2.318-4.152q1.15-2.527 1.406-2.527.247 0 .247.304 0 1.093-1.12 3.468-3.078 6.545-5.187 6.545-1.52 0-2.3-.627-.266-.266-.266-3.382t.656-5.34q-2.251 0-3.154-1.443-.465-.74-.465-1.672t.389-1.634 1.112-.703 1.32.76q.608.76.608 1.69 0 .942-.551 1.873.161.114.513.114m23.019 3.819q-3.078 6.546-5.206 6.546-2.119 0-2.49-.504-.37-.513-.37-3.353t.551-8.218q-1.947-.39-2.071-1.596 0-.627.817-.627t1.444.314q.352-2.803.817-5.681.114-.741.741-1.406t1.207-.665q.503 0 .503 1.596 0 .74-.541 6.82 1.054-.2 2.318-.778 1.263-.59 1.5-.59.703 0 .703.428.038.39-1.444 1.074t-3.192 1.035q-.465 5.68-.465 8.607 0 1.558.465 1.558.703-.038 1.872-1.634t2.308-4.151q1.15-2.546 1.406-2.546t.257.304q0 1.092-1.13 3.467"/><path fill="#fff" d="m944.194 973.206.038 1.206q0 1.093-.627 1.093-.931 0-1.786-.257-.855-.247-.855-.693 0-.456.209-3.078.218-2.632.218-3.952v-2.261q0-9.975 3.544-12.702.817-.617 1.672-.617.389 0 .779.855t.389 2.213q0 3.354-1.13 6.28-1.131 2.916-2.3 4.474-.037.978-.037 3.04.161-.237 1.634-2.65 1.482-2.413 2.517-3.544 1.026-1.13 1.853-1.13.817 0 1.453.54.646.552.646 1.369 0 1.71-.37 5.044-.371 3.325-.371 4.209 0 .874.238.874.655-.038 1.824-1.653t2.318-4.151q1.149-2.527 1.406-2.527t.256.304q0 1.092-1.13 3.467-3.078 6.545-5.187 6.545-1.52 0-2.3-.627-.265-.266-.265-1.415t.209-3.743q.218-2.584.218-3.876 0-1.283-.446-1.283t-2.356 2.67-2.033 3.41q-.228 1.359-.228 2.565m2.527-17.328q0-1.643-.428-1.643-.703 0-1.358 4.332-.352 2.29-.513 5.33 2.299-4.79 2.299-8.02"/><path fill="#fff" d="M960.173 975.504q-2.185 0-3.467-1.653t-1.283-3.762q0-4.246 1.786-6.422 1.795-2.185 4.636-2.185 1.33 0 2.185.722t.855 1.967q0 2.337-1.966 3.914-1.967 1.577-4.807 1.653.152 1.52 1.026 2.63t2.042 1.113q1.169 0 2.109-.551.931-.542 1.71-1.558 1.634-2.138 2.803-4.864.313-.703.494-1.017.17-.304.389-.304.209 0 .209.304 0 1.948-2.375 5.843-2.565 4.17-6.346 4.17m-2.061-6.697q2.289-.39 3.363-1.482t1.073-2.84q0-1.758-1.13-1.758-1.359 0-2.3 1.89-.93 1.89-1.006 4.19m-227.896 41.953.39 1.824q0 .665-.466 1.092t-1.093.428q-.617 0-.912-.58-.294-.59-.294-1.292 0-2.1 1.814-3.79 1.815-1.701 4.114-1.701h.228q.779-2.955 2.337-2.955.465 0 .465 1.245 0 .237-.114 1.87.59.077 1.368.19 1.824.277 3.05.277 1.235 0 2.498-.408 1.264-.41 1.691-.41 1.093 0 1.093 1.113t-1.169 1.67q-1.168.562-3.391.562-2.214 0-5.415-1.007-.466 2.689-.542 4.047-.076 1.368-.152 4.057 1.634-.086 4.513-.086.503 0 .874.39t.37.826q0 .428-.266.694-.275.275-.589.275l-4.949-.275q-.152 3.819-.247 5.187-.095 1.358-.76 2.527-.665 1.168-1.558 1.168-.504 0-1.112-.522-.608-.532-.608-.998t.143-.722q.133-.247.313-.503.171-.257.247-.41.466-1.015.855-5.566l-1.51.19q-.314 0-.513-.21-.19-.217-.19-.512 0-.285.114-.522t.465-.371.513-.171q.618-.161 1.245-.161.076-.931.209-4.047.142-3.117.408-4.874-.228-.038-.693-.038-2.774 0-2.774 2.498m13.234 12.217.237-4.36q0-4.171.39-4.56.39-.39 1.387-1.15.988-.76 1.435-.76t.57.162q.114.152.114.617 0 1.682-.742 3.39-.579 3.583-.579 5.882t.741 2.299q.893 0 2.1-1.558t2.412-4.636q.352-3.895.57-4.208.21-.314 1.064-1.131.865-.817 1.425-.817t.561 1.482q0 .39-.209 1.52-.218 1.13-.484 1.634-.428 1.092-.428 6.735 0 1.055.228 1.055.665-.038 1.833-1.653t2.318-4.152q1.15-2.527 1.397-2.527.256 0 .256.314 0 1.083-1.13 3.458-3.078 6.545-5.177 6.545-1.52 0-2.3-.617-.275-.276-.275-1.682 0-1.396.124-3.116-1.255 2.65-2.499 4.038-1.244 1.377-2.783 1.377t-2.043-.817q-.513-.817-.513-2.764"/><path fill="#fff" d="M766.402 1020.012q-3.078 6.546-5.197 6.546t-2.489-.504-.37-3.354q0-2.84.541-8.217-1.947-.39-2.061-1.596 0-.618.816-.618t1.444.304q.342-2.802.817-5.68.114-.742.741-1.407.618-.665 1.207-.665.503 0 .503 1.606 0 .73-.541 6.81 1.045-.19 2.318-.778 1.263-.58 1.491-.58.703 0 .703.428.038.39-1.444 1.064-1.472.684-3.192 1.036-.465 5.69-.465 8.607 0 1.558.465 1.558.703-.038 1.872-1.634t2.318-4.152q1.15-2.546 1.406-2.546.247 0 .247.314 0 1.083-1.13 3.458"/><path fill="#fff" d="m765.508 1022.976.238-4.36q0-4.171.39-4.56.389-.39 1.377-1.15.997-.76 1.444-.76t.56.162q.124.152.124.617 0 1.682-.741 3.39-.589 3.583-.589 5.882t.741 2.299q.893 0 2.109-1.558 1.206-1.558 2.413-4.636.351-3.895.56-4.208.219-.314 1.074-1.131t1.425-.817q.56 0 .56 1.482 0 .39-.209 1.52-.218 1.13-.494 1.634-.427 1.092-.427 6.735 0 1.055.237 1.055.656-.038 1.824-1.653t2.318-4.152q1.15-2.527 1.406-2.527t.257.314q0 1.083-1.13 3.458-3.079 6.545-5.188 6.545-1.51 0-2.289-.617-.275-.276-.275-1.682 0-1.396.113-3.116-1.244 2.65-2.489 4.038-1.244 1.377-2.783 1.377t-2.052-.817q-.504-.817-.504-2.764"/><path fill="#fff" d="m783.112 1016.202 2.147-.237q.314 0 .542.352.237.35.237.74t-.256 2.65q-.257 2.252-.257 3.563 0 1.302.237 1.302.665-.038 1.834-1.653t2.318-4.152q1.15-2.527 1.396-2.527.257 0 .257.314 0 1.083-1.13 3.458-3.078 6.545-5.178 6.545-1.52 0-2.299-.617-.275-.276-.275-3.392t.665-5.34q-2.261 0-3.154-1.433-.466-.741-.466-1.682 0-.93.39-1.634t1.102-.703q.721 0 1.33.76.598.76.598 1.7 0 .932-.542 1.863.152.123.504.123"/><path fill="#fff" d="M794.408 1026.558q-2.176 0-3.468-1.653-1.282-1.653-1.282-3.762 0-4.247 1.795-6.422 1.786-2.185 4.636-2.185 1.32 0 2.176.722.855.722.855 1.966 0 2.337-1.967 3.914-1.966 1.577-4.807 1.653.152 1.52 1.036 2.632.874 1.11 2.042 1.11t2.1-.54q.94-.551 1.719-1.558 1.634-2.147 2.803-4.874.313-.703.484-1.007.18-.313.39-.313.218 0 .218.313 0 1.947-2.375 5.843-2.574 4.16-6.355 4.16m-2.062-6.697q2.299-.39 3.373-1.482 1.064-1.092 1.064-2.84 0-1.758-1.131-1.758-1.358 0-2.29 1.89-.94 1.89-1.016 4.19m-25.548-383.218 1.711-3.48c.744-1.505 15.401-31.395 28.03-49.493-13.373 10.918-23.9 29.406-24.03 29.648l-3.944 6.994.242-8.017c.018-.446 1.804-44.547 39.32-65.472 13.3-7.403 19.902-15.196 18.6-21.91l-.948-4.837 4.017 2.865c11.067 7.886 18.247 23.715 18.73 41.292.521 18.488-6.454 35.34-18.637 45.086-25.65 20.46-57.902 26.412-59.26 26.654Zm46.388-66.347-6.621 6.994c-10.751 11.383-27.23 43.115-32.68 53.94 9.411-2.27 33.833-9.263 53.53-24.998 11.235-8.984 17.67-24.645 17.187-41.888-.41-14.6-5.655-27.825-13.95-35.6-1.116 7.217-8.147 14.564-20.609 21.52-25.63 14.304-33.666 40.009-36.177 53.438 6.194-9.17 17.67-24.013 30.504-29.574Zm-50.592 35.6-3.534-.65c-1.264-.223-31.34-5.84-55.242-25.296-12.462-10.156-19.902-26.412-19.902-43.468 0-14.322 5.32-26.86 14.564-34.41l2.827-2.307.186 3.664c.372 7.068 5.357 9.245 12.872 12.537 2.976 1.302 6.324 2.753 9.802 4.724 34.93 19.846 37.014 65.249 37.088 67.165l.298 7.923-3.776-6.956c-.13-.242-9.895-18.042-22.934-28.588 13.876 16.07 25.612 41.087 26.226 42.408Zm-64.244-98.69c-6.845 6.957-10.714 17.428-10.714 29.277 0 15.958 6.92 31.136 18.545 40.585 18.358 14.954 41.106 21.576 49.848 23.715-4.967-9.97-20.274-38.8-34.54-47.746l-10.119-6.343 11.57 2.976c14.507 3.739 27.192 20.255 33.628 30.058-2.288-13.95-9.84-41.943-34.243-55.8a93 93 0 0 0-9.448-4.557c-6.734-2.958-12.686-5.543-14.508-12.165"/></g><path fill="transparent" stroke="transparent" stroke-width="1.795" d="M250 268.851h1000v962.298H250z"/></g></svg>