<svg xmlns="http://www.w3.org/2000/svg" xml:space="preserve" width="1500" height="560" data-id="lg_celEwWHUQiSi6WQxgp" data-version="1" viewBox="0 0 1500 560"><g data-padding="20"><g transform="translate(10 10.428)scale(.96276)"><rect width="536.854" height="293.167" x="231.43" y="-146.341" fill="none" rx="0" ry="0" transform="translate(268.77 413)"/><path fill="#fff" d="M626.017 346.614v-10.24h34.43v47.78q-7.75 2.62-15.94 3.9-8.18 1.28-18.29 1.28-15.37 0-25.91-6.13-10.55-6.13-16-17.48-5.46-11.36-5.46-26.99 0-15.3 6.03-26.68 6.03-11.39 17.45-17.69t27.46-6.3q8.22 0 15.6 1.51 7.38 1.52 13.71 4.28l-4.38 9.97q-5.46-2.35-12.03-4.04-6.57-1.68-13.57-1.68-12.07 0-20.66 4.98-8.59 4.99-13.14 14.09-4.55 9.09-4.55 21.56 0 12.33 3.98 21.46t12.4 14.18q8.42 5.06 21.7 5.06 6.67 0 11.45-.78 4.78-.77 8.69-1.85v-30.19Zm90.09-33.83q2.22 0 4.65.23 2.42.24 4.31.64l-1.42 10.38q-1.82-.47-4.04-.74t-4.18-.27q-4.44 0-8.39 1.78-3.94 1.79-6.9 5.13-2.97 3.33-4.65 8.01-1.69 4.69-1.69 10.41v39.63h-11.25v-73.86h9.3l1.21 13.62h.47q2.29-4.11 5.53-7.52 3.23-3.4 7.51-5.42t9.54-2.02m51.27 0q9.44 0 16.18 4.17 6.73 4.18 10.31 11.7 3.57 7.51 3.57 17.55v6.94h-51.01q.2 13 6.47 19.81 6.26 6.81 17.65 6.81 7.01 0 12.4-1.29 5.39-1.28 11.19-3.77v9.84q-5.6 2.49-11.09 3.64-5.49 1.14-12.97 1.14-10.65 0-18.56-4.34-7.92-4.35-12.3-12.77t-4.38-20.62q0-11.93 4.01-20.65 4.01-8.73 11.32-13.45 7.31-4.71 17.21-4.71m-.13 9.16q-8.96 0-14.29 5.86-5.32 5.87-6.33 16.38h39.08q-.06-6.61-2.05-11.63t-6.03-7.81q-4.05-2.8-10.38-2.8m77.62-9.16q9.44 0 16.18 4.17 6.74 4.18 10.31 11.7 3.57 7.51 3.57 17.55v6.94h-51.01q.2 13 6.47 19.81 6.26 6.81 17.65 6.81 7.01 0 12.4-1.29 5.39-1.28 11.19-3.77v9.84q-5.6 2.49-11.09 3.64-5.49 1.14-12.97 1.14-10.65 0-18.56-4.34-7.92-4.35-12.3-12.77t-4.38-20.62q0-11.93 4.01-20.65 4.01-8.73 11.32-13.45 7.31-4.71 17.21-4.71m-.13 9.16q-8.96 0-14.28 5.86-5.33 5.87-6.34 16.38h39.08q-.06-6.61-2.05-11.63t-6.03-7.81q-4.05-2.8-10.38-2.8m84.17-9.16q13.14 0 19.88 6.43 6.74 6.44 6.74 20.65v48.12h-11.05v-47.37q0-9.24-4.21-13.82-4.22-4.58-12.91-4.58-12.26 0-17.25 6.94-4.98 6.94-4.98 20.15v38.68h-11.19v-73.86h9.03l1.68 10.65h.61q2.36-3.91 6-6.57t8.15-4.04 9.5-1.38m-346.85 186.21q0 8.76-4.35 14.93-4.34 6.16-12.16 9.4-7.82 3.23-18.39 3.23-5.6 0-10.58-.54-4.99-.54-9.17-1.55t-7.34-2.49v-10.98q5.05 2.08 12.33 3.87t15.23 1.79q7.41 0 12.53-1.99t7.78-5.73 2.66-9q0-5.05-2.22-8.45t-7.38-6.2q-5.15-2.8-14.05-5.96-6.26-2.23-11.05-4.89-4.78-2.66-8.02-6.03-3.23-3.37-4.88-7.82-1.65-4.44-1.65-10.17 0-7.89 4.01-13.51 4.01-5.63 11.12-8.63 7.1-3 16.34-3 7.88 0 14.58 1.49 6.71 1.48 12.3 3.97l-3.57 9.84q-5.32-2.22-11.29-3.71-5.96-1.48-12.29-1.48-6.34 0-10.68 1.85-4.35 1.86-6.64 5.23t-2.29 8.02q0 5.18 2.19 8.62t7.01 6.1q4.81 2.66 12.76 5.56 8.7 3.16 14.76 6.7 6.07 3.54 9.23 8.63 3.17 5.08 3.17 12.9m18.39-78.63h11.18v31.33q0 2.69-.13 5.42-.14 2.73-.48 5.02h.75q2.29-3.91 5.82-6.57 3.54-2.66 8.06-4.04 4.51-1.38 9.56-1.38 8.9 0 14.86 2.83 5.97 2.83 8.96 8.76 3 5.93 3 15.36v48.11h-11.05v-47.37q0-9.23-4.21-13.81t-12.9-4.58q-8.22 0-13.11 3.13-4.88 3.13-7.01 9.2-2.12 6.06-2.12 14.82v38.61h-11.18Zm112.26 29.79q13.21 0 19.61 5.93t6.4 18.93v50.2h-8.15l-2.15-10.91h-.54q-3.1 4.04-6.47 6.77t-7.79 4.11q-4.41 1.38-10.81 1.38-6.74 0-11.96-2.36t-8.22-7.14-3-12.13q0-11.05 8.76-16.98t26.68-6.47l12.74-.54v-4.51q0-9.57-4.11-13.41t-11.59-3.84q-5.8 0-11.05 1.68-5.26 1.69-9.97 3.98l-3.44-8.49q4.98-2.56 11.45-4.38t13.61-1.82m14.96 45.48v-6.8l-11.25.47q-13.81.54-19.47 4.51-5.66 3.98-5.66 11.26 0 6.33 3.84 9.36t10.17 3.03q9.84 0 16.11-5.45 6.26-5.46 6.26-16.38m60.38 30.93q-14.02 0-22.2-9.57-8.19-9.57-8.19-28.43 0-19.07 8.35-28.81 8.36-9.74 22.24-9.74 5.86 0 10.24 1.55t7.55 4.15q3.17 2.59 5.32 5.89h.81q-.27-2.09-.54-5.72-.27-3.64-.27-5.93v-29.58h11.19v104.84h-9.03l-1.68-10.51h-.48q-2.09 3.3-5.29 6-3.2 2.69-7.61 4.28-4.41 1.58-10.41 1.58m1.75-9.3q11.86 0 16.78-6.74 4.92-6.73 4.92-20.01v-2.02q0-14.08-4.68-21.63-4.69-7.55-17.02-7.55-10.31 0-15.43 7.92t-5.12 21.6q0 13.61 5.09 21.02 5.08 7.41 15.46 7.41m120.08-29.12q0 9.1-2.36 16.24t-6.81 12.06q-4.44 4.92-10.74 7.52-6.3 2.59-14.26 2.59-7.41 0-13.57-2.59-6.17-2.6-10.65-7.52t-6.94-12.06-2.46-16.24q0-12.13 4.11-20.65t11.76-13.01q7.65-4.48 18.23-4.48 10.1 0 17.68 4.52 7.58 4.51 11.8 13.04 4.21 8.52 4.21 20.58m-56.2 0q0 8.9 2.36 15.43 2.36 6.54 7.28 10.11 4.91 3.57 12.66 3.57 7.69 0 12.64-3.57t7.31-10.11q2.36-6.53 2.36-15.43 0-8.82-2.36-15.26-2.36-6.43-7.28-9.94-4.92-3.5-12.73-3.5-11.53 0-16.88 7.61-5.36 7.62-5.36 21.09m148.64 36.93h-13.01l-13.14-42.99q-.87-2.76-1.65-5.43-.77-2.66-1.41-5.12t-1.15-4.58-.84-3.67h-.47q-.27 1.55-.74 3.67-.48 2.12-1.12 4.62-.64 2.49-1.38 5.22t-1.68 5.49l-13.75 42.79h-12.6l-20.35-73.85h11.59l10.65 40.76q1.08 4.05 2.05 7.99.98 3.94 1.69 7.41.7 3.47 1.04 6.03h.54q.4-1.68.91-4.04t1.15-5.02 1.38-5.33q.74-2.66 1.48-5.02l13.61-42.78h12.06l13.14 42.72q1.01 3.23 1.99 6.74.98 3.5 1.79 6.77.8 3.27 1.14 5.83h.54q.27-2.29 1.01-5.66t1.72-7.42q.98-4.04 2.05-8.22l10.79-40.76h11.38Z"/><path fill="#8abe53" d="M792.519 130.4c9.924-15.616 29.234-32.304 64.488-41.423-13.35 4.053-45.177 20.711-59.302 48.128 58.855 20.294 63.384-48.872 86.42-57.514-88.864-14.007-96.493 21.396-91.606 50.808m-12.694 15.645c-14.126-27.416-45.922-44.104-59.302-48.127 35.253 9.12 54.534 25.807 64.487 41.422 4.887-29.413-2.712-64.815-91.576-50.809 23.006 8.642 27.536 77.809 86.39 57.515"/><path fill="#8abe53" d="M782.894 99.944c.477-18.178 3.278-43.002 3.278-43.002s2.742 24.795 3.218 43.002c9.626-3.874 16.957-24.586 16.957-49.558 0-27.714-20.205-50.213-20.205-50.213s-20.204 22.47-20.204 50.213c0 24.972 7.36 45.683 16.986 49.558m11.175 38.62-.596 4.023c-.388 2.563-1.073 6.319-2.235 10.847a95.4 95.4 0 0 1-15.11 32.691 85.53 85.53 0 0 1-73.545 34.539c-12.218-.596-20.86-3.278-27.148-5.245-6.288-2.027-10.251-3.577-13.112-4.083-5.662-1.282-6.735 1.58-8.642 4.261s-4.768 4.321-.596 9.834c2.205 2.623 6.198 6.319 13.767 10.192a83.4 83.4 0 0 0 34.658 8.82 86.4 86.4 0 0 0 50.392-13.469 92.4 92.4 0 0 0 34.538-38.888 95.4 95.4 0 0 0 8.493-38.145 101 101 0 0 0-.417-11.324Z"/></g><path fill="transparent" stroke="transparent" d="M481.5 0h537v560h-537z"/></g></svg>